<?xml version="1.0" encoding="utf-8"?>
<!-- Generator: Adobe Illustrator 21.0.0, SVG Export Plug-In . SVG Version: 6.00 Build 0)  -->
<svg version="1.1" id="Layer_1" xmlns="http://www.w3.org/2000/svg" xmlns:xlink="http://www.w3.org/1999/xlink" x="0px" y="0px"
	 viewBox="0 0 256 256" style="enable-background:new 0 0 256 256;" xml:space="preserve">
<style type="text/css">
	.st0{fill:#FFFFFF;}
</style>
<g>
	<path class="st0" d="M122.2,31.1c27.5,0,53.2,10.7,72.7,30.2s30.2,45.2,30.2,72.7s-10.7,53.2-30.2,72.7s-45.2,30.2-72.7,30.2
		s-53.2-10.7-72.7-30.2s-30.2-45.2-30.2-72.7S30,80.7,49.4,61.2S94.7,31.1,122.2,31.1 M122.2,12C54.8,12,0.3,66.5,0.3,133.9
		s54.5,121.9,121.9,121.9s121.9-54.6,121.9-121.9S189.5,12,122.2,12L122.2,12z"/>
</g>
<g>
	<path class="st0" d="M208,48L37.2,218.8c0,0-71.3-99.9-0.2-171C103.8-19,208,48,208,48z"/>
</g>
</svg>
