<?xml version="1.0" encoding="utf-8"?>
<!-- Generator: Adobe Illustrator 21.0.0, SVG Export Plug-In . SVG Version: 6.00 Build 0)  -->
<svg version="1.1" id="Layer_1" xmlns="http://www.w3.org/2000/svg" xmlns:xlink="http://www.w3.org/1999/xlink" x="0px" y="0px"
	 viewBox="0 0 427 427" style="enable-background:new 0 0 427 427;" xml:space="preserve">
<style type="text/css">
	.st0{fill:#F44336;stroke:#F44336;stroke-width:10;stroke-miterlimit:10;}
</style>
<g>
	<path class="st0" d="M270.2,157c-5.3,0-9.6,4.3-9.6,9.6v181.5c0,5.3,4.3,9.6,9.6,9.6c5.3,0,9.6-4.3,9.6-9.6V166.6
		C279.8,161.3,275.5,157,270.2,157z"/>
	<path class="st0" d="M156.8,157c-5.3,0-9.6,4.3-9.6,9.6v181.5c0,5.3,4.3,9.6,9.6,9.6c5.3,0,9.6-4.3,9.6-9.6V166.6
		C166.4,161.3,162.2,157,156.8,157z"/>
	<path class="st0" d="M74.3,130.6v236.6c0,14,5.1,27.1,14.1,36.5c8.9,9.4,21.3,14.8,34.3,14.8h181.7c13,0,25.4-5.4,34.3-14.8
		c9-9.4,14.1-22.6,14.1-36.5V130.6c17.8-4.7,29.3-21.9,27-40.2c-2.4-18.3-17.9-31.9-36.4-31.9h-49.2v-12
		c0.1-10.1-3.9-19.8-11.1-26.9c-7.1-7.1-16.9-11.1-26.9-11h-85.3c-10.1-0.1-19.8,3.9-26.9,11c-7.1,7.1-11.1,16.8-11.1,26.9v12H83.7
		c-18.4,0-34,13.7-36.4,31.9C44.9,108.6,56.5,125.8,74.3,130.6z M304.3,399.3H122.7c-16.4,0-29.2-14.1-29.2-32.2V131.4h240.1v235.7
		C333.5,385.2,320.8,399.3,304.3,399.3z M152,46.4c-0.1-5,1.9-9.8,5.4-13.3c3.5-3.5,8.4-5.5,13.4-5.4h85.3c5-0.1,9.8,1.9,13.4,5.4
		c3.5,3.5,5.5,8.3,5.4,13.3v12H152V46.4z M83.7,77.6h259.6c9.5,0,17.3,7.7,17.3,17.3s-7.7,17.3-17.3,17.3H83.7
		c-9.5,0-17.3-7.7-17.3-17.3S74.1,77.6,83.7,77.6z"/>
	<path class="st0" d="M213.5,157c-5.3,0-9.6,4.3-9.6,9.6v181.5c0,5.3,4.3,9.6,9.6,9.6s9.6-4.3,9.6-9.6V166.6
		C223.1,161.3,218.8,157,213.5,157z"/>
</g>
</svg>
