<?xml version="1.0" encoding="utf-8"?>
<!-- Generator: Adobe Illustrator 21.0.0, SVG Export Plug-In . SVG Version: 6.00 Build 0)  -->
<svg version="1.1" id="Capa_1" xmlns="http://www.w3.org/2000/svg" xmlns:xlink="http://www.w3.org/1999/xlink" x="0px" y="0px"
	 viewBox="0 0 548.2 548.2" style="enable-background:new 0 0 548.2 548.2;" xml:space="preserve">
<style type="text/css">
	.st0{fill:#FFFFFF;}
</style>
<g>
	<path class="st0" d="M524.3,297.4c-15.9-19.9-36.2-32.8-61-38.7c7.8-11.8,11.7-24.9,11.7-39.4c0-20.2-7.1-37.4-21.4-51.7
		c-14.3-14.3-31.5-21.4-51.7-21.4c-18.1,0-33.9,5.9-47.4,17.7c-11.2-27.4-29.2-49.4-53.8-65.9c-24.6-16.6-51.8-24.8-81.5-24.8
		c-40.3,0-74.8,14.3-103.4,42.8c-28.6,28.5-42.8,63-42.8,103.4c0,2.5,0.2,6.6,0.6,12.3C51.2,242,33.3,257.7,20,278.7
		C6.7,299.6,0,322.4,0,347.2c0,35.2,12.5,65.3,37.5,90.4c25,25,55.2,37.5,90.4,37.5h310.6c30.3,0,56.1-10.7,77.5-32.1
		c21.4-21.4,32.1-47.2,32.1-77.5C548.2,339.9,540.2,317.2,524.3,297.4z M362.6,308.3L262.4,408.6c-1.7,1.7-3.9,2.6-6.6,2.6
		c-2.7,0-4.9-0.9-6.6-2.6L148.8,308.1c-1.7-1.7-2.6-3.9-2.6-6.6c0-2.5,0.9-4.6,2.7-6.4c1.8-1.8,3.9-2.7,6.4-2.7h64V191.9
		c0-2.5,0.9-4.6,2.7-6.4c1.8-1.8,3.9-2.7,6.4-2.7h54.8c2.5,0,4.6,0.9,6.4,2.7c1.8,1.8,2.7,4,2.7,6.4v100.5h64c2.7,0,4.9,0.9,6.6,2.6
		c1.7,1.7,2.6,3.9,2.6,6.6C365.4,303.8,364.5,306.1,362.6,308.3z"/>
</g>
</svg>
