<?xml version="1.0" encoding="utf-8"?>
<!-- Generator: Adobe Illustrator 21.0.0, SVG Export Plug-In . SVG Version: 6.00 Build 0)  -->
<svg version="1.1" id="Layer_1" xmlns="http://www.w3.org/2000/svg" xmlns:xlink="http://www.w3.org/1999/xlink" x="0px" y="0px"
	 viewBox="0 0 256 256" style="enable-background:new 0 0 256 256;" xml:space="preserve">
<style type="text/css">
	.st0{fill:#FFFFFF;}
</style>
<g>
	<g>
		<g>
			<path class="st0" d="M227.9,166.8c0,0-28.6,30.9-28.6,50c0,15.8,12.8,28.6,28.6,28.6s28.6-12.8,28.6-28.6
				C256.5,197.7,227.9,166.8,227.9,166.8z"/>
			<path class="st0" d="M65.5,2.6L45.3,22.8l34,34L5.8,130.3c-8.4,8.4-8.4,21.9,0,30.3l78.5,78.5c4.1,4.2,9.6,6.3,15.1,6.3
				c5.5,0,11-2.1,15.1-6.3l78.5-78.5c8.4-8.4,8.4-21.9,0-30.3L65.5,2.6z M31,145.4L99.4,77l68.5,68.4H31z"/>
		</g>
	</g>
</g>
</svg>
