<?xml version="1.0" encoding="utf-8"?>
<!-- Generator: Adobe Illustrator 21.0.0, SVG Export Plug-In . SVG Version: 6.00 Build 0)  -->
<svg version="1.1" id="Layer_1" xmlns="http://www.w3.org/2000/svg" xmlns:xlink="http://www.w3.org/1999/xlink" x="0px" y="0px"
	 viewBox="0 0 401 401" style="enable-background:new 0 0 401 401;" xml:space="preserve">
<style type="text/css">
	.st0{fill:#FFFFFF;stroke:#FFFFFF;stroke-width:15;stroke-miterlimit:10;}
</style>
<path class="st0" d="M367.9,247.8c-5.1,0-9.3,4.2-9.3,9.3v82.4c0,15.4-12.5,27.8-27.9,27.9H70.2c-15.4,0-27.8-12.5-27.9-27.9V97.6
	c0-15.4,12.5-27.8,27.9-27.9h82.4c5.1,0,9.3-4.2,9.3-9.3c0-5.1-4.2-9.3-9.3-9.3H70.2c-25.6,0-46.4,20.8-46.4,46.4v241.9
	c0,25.6,20.8,46.4,46.4,46.4h260.5c25.6,0,46.4-20.8,46.4-46.4v-82.4C377.2,252,373,247.8,367.9,247.8z"/>
<path class="st0" d="M361.6,46.6c-16.3-16.3-42.8-16.3-59.1,0L136.8,212.3c-1.1,1.1-2,2.5-2.4,4.1L112.7,295c-0.9,3.2,0,6.7,2.4,9
	c2.4,2.4,5.8,3.3,9,2.4l78.6-21.8c1.5-0.4,3-1.2,4.1-2.4l165.6-165.6c16.3-16.3,16.3-42.8,0-59.1L361.6,46.6z M157.1,218.3
	L292.6,82.7l43.7,43.7L200.8,262L157.1,218.3z M359.3,103.5l-9.8,9.8l-43.7-43.7l9.8-9.8c9.1-9.1,23.8-9.1,32.8,0l10.9,10.9
	C368.4,79.7,368.4,94.4,359.3,103.5z"/>
</svg>
