<?xml version="1.0" encoding="utf-8"?>
<!-- Generator: Adobe Illustrator 21.0.0, SVG Export Plug-In . SVG Version: 6.00 Build 0)  -->
<svg version="1.1" id="Layer_1" xmlns="http://www.w3.org/2000/svg" xmlns:xlink="http://www.w3.org/1999/xlink" x="0px" y="0px"
	 viewBox="0 0 250 150" style="enable-background:new 0 0 250 150;" xml:space="preserve">
<style type="text/css">
	.st0{fill:#EDEDED;}
	.st1{fill:#FFFFFF;}
	.st2{fill:#C6C6C6;}
	.st3{fill:#494949;}
	.st4{fill:#BABABA;}
	.st5{fill:#A3A3A3;}
</style>
<rect class="st0" width="250" height="150"/>
<path class="st1" d="M226.5,13.5h-203c-6.6,0-12,5.4-12,12v99c0,6.6,5.4,12,12,12h203c6.6,0,12-5.4,12-12v-99
	C238.5,18.9,233.1,13.5,226.5,13.5z"/>
<path class="st2" d="M207,58.7H22c-1.4,0-2.5-1.1-2.5-2.5l0,0c0-1.4,1.1-2.5,2.5-2.5h185c1.4,0,2.5,1.1,2.5,2.5l0,0
	C209.5,57.6,208.4,58.7,207,58.7z"/>
<path class="st3" d="M124.5,33.7h-101c-2.7,0-5-2.3-5-5l0,0c0-2.8,2.2-5,5-5h101c2.7,0,5,2.2,5,5l0,0
	C129.5,31.5,127.3,33.7,124.5,33.7z"/>
<path class="st4" d="M98.5,46.7h-75c-2.2,0-4-1.8-4-4l0,0c0-2.2,1.8-4,4-4h75c2.2,0,4,1.8,4,4l0,0C102.5,44.9,100.7,46.7,98.5,46.7z
	"/>
<path class="st2" d="M179,68.7H22c-1.4,0-2.5-1.1-2.5-2.5l0,0c0-1.4,1.1-2.5,2.5-2.5h157c1.4,0,2.5,1.1,2.5,2.5l0,0
	C181.5,67.6,180.4,68.7,179,68.7z"/>
<path class="st2" d="M195,78.7H22c-1.4,0-2.5-1.1-2.5-2.5l0,0c0-1.4,1.1-2.5,2.5-2.5h173c1.4,0,2.5,1.1,2.5,2.5l0,0
	C197.5,77.6,196.4,78.7,195,78.7z"/>
<path class="st2" d="M201,113.5H22c-1.4,0-2.5-1.1-2.5-2.5l0,0c0-1.4,1.1-2.5,2.5-2.5h179c1.4,0,2.5,1.1,2.5,2.5l0,0
	C203.5,112.4,202.4,113.5,201,113.5z"/>
<path class="st2" d="M119,123.5H22c-1.4,0-2.5-1.1-2.5-2.5l0,0c0-1.4,1.1-2.5,2.5-2.5h97c1.4,0,2.5,1.1,2.5,2.5l0,0
	C121.5,122.4,120.4,123.5,119,123.5z"/>
<path class="st2" d="M65.4,88.7H34.5c-1.4,0-2.5-1.1-2.5-2.5v0c0-1.4,1.1-2.5,2.5-2.5h30.9c1.4,0,2.5,1.1,2.5,2.5v0
	C67.9,87.5,66.8,88.7,65.4,88.7z"/>
<path class="st2" d="M71.5,95.8h-37c-1.4,0-2.5-1.1-2.5-2.5v0c0-1.4,1.1-2.5,2.5-2.5h37c1.4,0,2.5,1.1,2.5,2.5v0
	C74,94.7,72.9,95.8,71.5,95.8z"/>
<path class="st2" d="M54.8,102.9H34.5c-1.4,0-2.5-1.1-2.5-2.5v0c0-1.4,1.1-2.5,2.5-2.5h20.3c1.4,0,2.5,1.1,2.5,2.5v0
	C57.3,101.8,56.1,102.9,54.8,102.9z"/>
<path class="st5" d="M25.8,88.7L25.8,88.7c-1.4,0-2.5-1.1-2.5-2.5v0c0-1.4,1.1-2.5,2.5-2.5h0c1.4,0,2.5,1.1,2.5,2.5v0
	C28.3,87.5,27.1,88.7,25.8,88.7z"/>
<path class="st5" d="M25.8,95.8L25.8,95.8c-1.4,0-2.5-1.1-2.5-2.5v0c0-1.4,1.1-2.5,2.5-2.5h0c1.4,0,2.5,1.1,2.5,2.5v0
	C28.3,94.7,27.1,95.8,25.8,95.8z"/>
<path class="st5" d="M25.8,102.9L25.8,102.9c-1.4,0-2.5-1.1-2.5-2.5v0c0-1.4,1.1-2.5,2.5-2.5h0c1.4,0,2.5,1.1,2.5,2.5v0
	C28.3,101.8,27.1,102.9,25.8,102.9z"/>
</svg>
