<?xml version="1.0" encoding="utf-8"?>
<!-- Generator: Adobe Illustrator 21.0.0, SVG Export Plug-In . SVG Version: 6.00 Build 0)  -->
<svg version="1.1" id="Layer_1" xmlns="http://www.w3.org/2000/svg" xmlns:xlink="http://www.w3.org/1999/xlink" x="0px" y="0px"
	 viewBox="0 0 250 150" style="enable-background:new 0 0 250 150;" xml:space="preserve">
<style type="text/css">
	.st0{fill:#EDEDED;}
	.st1{fill:#FFFFFF;}
	.st2{fill:#494949;}
</style>
<rect class="st0" width="250" height="150"/>
<g>
	<g>
		<g>
			<image style="overflow:visible;opacity:0.25;" width="258" height="78" xlink:href="7A6C3133.png"  transform="matrix(1 0 0 1 -3 37)">
			</image>
			<g>
				<path class="st1" d="M230.5,99h-211c-4.4,0-8-3.6-8-8V59c0-4.4,3.6-8,8-8h211c4.4,0,8,3.6,8,8v32C238.5,95.4,234.9,99,230.5,99z"/>
			</g>
		</g>
	</g>
</g>
<path class="st2" d="M126,69H25c-2.7,0-5-2.3-5-5l0,0c0-2.8,2.2-5,5-5h101c2.7,0,5,2.2,5,5l0,0C131,66.8,128.8,69,126,69z"/>
</svg>
