<?xml version="1.0" encoding="utf-8"?>
<!-- Generator: Adobe Illustrator 21.0.0, SVG Export Plug-In . SVG Version: 6.00 Build 0)  -->
<svg version="1.1" id="Layer_1" xmlns="http://www.w3.org/2000/svg" xmlns:xlink="http://www.w3.org/1999/xlink" x="0px" y="0px"
	 viewBox="0 0 250 150" style="enable-background:new 0 0 250 150;" xml:space="preserve">
<style type="text/css">
	.st0{fill:#EDEDED;}
	.st1{fill:#BDDAE5;}
	.st2{fill:#3DB39E;}
	.st3{fill:#4BC2AD;}
	.st4{fill:#3ED6B9;}
	.st5{fill:#FFFFFF;}
	.st6{fill:#E8C377;}
</style>
<rect class="st0" width="250" height="150"/>
<path class="st1" d="M220.7,119.8H29.6c-6.6,0-12-5.4-12-12V42.3c0-6.6,5.4-12,12-12h191.1c6.6,0,12,5.4,12,12v65.5
	C232.7,114.3,227.3,119.8,220.7,119.8z"/>
<path class="st2" d="M30.4,97.7c-4.4,0-8.8,0.2-12.8,0.5v16.7c0,2.5,3.5,4.6,7.7,4.6h58.3c0.4-0.9,0.5-1.8,0.5-2.7
	C84.1,106.2,60.1,97.7,30.4,97.7z"/>
<path class="st3" d="M147.5,92.4c-48,0-87.1,13.9-87.6,31.2h140C199.8,123.5,194.2,92.4,147.5,92.4z"/>
<path class="st4" d="M168.4,118.3c0,0.5,65.4,0,65.4,0V95C256.3,68.6,168.4,107.7,168.4,118.3z"/>
<g>
	<path class="st5" d="M223.5,31.7c4.4,0,8,3.6,8,8v70.7c0,4.4-3.6,8-8,8h-197c-4.4,0-8-3.6-8-8V39.7c0-4.4,3.6-8,8-8H223.5
		 M223.5,21.7h-197c-9.9,0-18,8.1-18,18v70.7c0,9.9,8.1,18,18,18h197c9.9,0,18-8.1,18-18V39.7C241.5,29.7,233.4,21.7,223.5,21.7
		L223.5,21.7z"/>
</g>
<circle class="st6" cx="59.9" cy="59.6" r="18.9"/>
</svg>
