<?xml version="1.0" encoding="utf-8"?>
<!-- Generator: Adobe Illustrator 21.0.0, SVG Export Plug-In . SVG Version: 6.00 Build 0)  -->
<svg version="1.1" id="Layer_1" xmlns="http://www.w3.org/2000/svg" xmlns:xlink="http://www.w3.org/1999/xlink" x="0px" y="0px"
	 viewBox="0 0 250 150" style="enable-background:new 0 0 250 150;" xml:space="preserve">
<style type="text/css">
	.st0{fill:#EDEDED;}
	.st1{fill:#FFFFFF;}
	.st2{fill:#C6C6C6;}
</style>
<rect class="st0" width="250" height="150"/>
<g>
	<g>
		
			<image style="overflow:visible;opacity:0.25;" width="258" height="56" xlink:href="817F21B.png"  transform="matrix(1 0 0 1 -3 48)">
		</image>
		<path class="st1" d="M230.5,87.5h-211c-4.4,0-8-3.6-8-8v-9c0-4.4,3.6-8,8-8h211c4.4,0,8,3.6,8,8v9
			C238.5,83.9,234.9,87.5,230.5,87.5z"/>
	</g>
</g>
<path class="st2" d="M57.5,77.5h-35c-1.4,0-2.5-1.1-2.5-2.5l0,0c0-1.4,1.1-2.5,2.5-2.5h35c1.4,0,2.5,1.1,2.5,2.5l0,0
	C60,76.4,58.9,77.5,57.5,77.5z"/>
<path class="st2" d="M73.5,77.5h-8c-1.4,0-2.5-1.1-2.5-2.5l0,0c0-1.4,1.1-2.5,2.5-2.5h8c1.4,0,2.5,1.1,2.5,2.5l0,0
	C76,76.4,74.9,77.5,73.5,77.5z"/>
<path class="st2" d="M96.5,77.5h-14c-1.4,0-2.5-1.1-2.5-2.5l0,0c0-1.4,1.1-2.5,2.5-2.5h14c1.4,0,2.5,1.1,2.5,2.5l0,0
	C99,76.4,97.9,77.5,96.5,77.5z"/>
<path class="st2" d="M145.5,77.5h-40c-1.4,0-2.5-1.1-2.5-2.5l0,0c0-1.4,1.1-2.5,2.5-2.5h40c1.4,0,2.5,1.1,2.5,2.5l0,0
	C148,76.4,146.9,77.5,145.5,77.5z"/>
</svg>
