<?xml version="1.0" encoding="utf-8"?>
<!-- Generator: Adobe Illustrator 21.0.0, SVG Export Plug-In . SVG Version: 6.00 Build 0)  -->
<svg version="1.1" id="Layer_1" xmlns="http://www.w3.org/2000/svg" xmlns:xlink="http://www.w3.org/1999/xlink" x="0px" y="0px"
	 viewBox="0 0 250 150" style="enable-background:new 0 0 250 150;" xml:space="preserve">
<style type="text/css">
	.st0{fill:#EDEDED;}
	.st1{fill:#FFFFFF;}
	.st2{fill:#2CB1BE;}
	.st3{fill:none;stroke:#2CB1BE;stroke-width:3;stroke-linecap:round;stroke-miterlimit:10;}
</style>
<rect class="st0" width="250" height="150"/>
<path class="st1" d="M230.5,88.6h-211c-4.4,0-8-3.6-8-8V69.4c0-4.4,3.6-8,8-8h211c4.4,0,8,3.6,8,8v11.3
	C238.5,85,234.9,88.6,230.5,88.6z"/>
<path class="st2" d="M97.6,72.5H23.1c-1.4,0-2.5,1.1-2.5,2.5l0,0c0,1.4,1.1,2.5,2.5,2.5h74.5c1.4,0,2.5-1.1,2.5-2.5l0,0
	C100.1,73.6,99,72.5,97.6,72.5z"/>
<g>
	<line class="st3" x1="222" y1="69.6" x2="227.3" y2="74.9"/>
	<line class="st3" x1="227.3" y1="74.9" x2="221.8" y2="80.4"/>
</g>
</svg>
