<?xml version="1.0" encoding="utf-8"?>
<!-- Generator: Adobe Illustrator 21.0.0, SVG Export Plug-In . SVG Version: 6.00 Build 0)  -->
<svg version="1.1" id="Layer_1" xmlns="http://www.w3.org/2000/svg" xmlns:xlink="http://www.w3.org/1999/xlink" x="0px" y="0px"
	 viewBox="0 0 250 150" style="enable-background:new 0 0 250 150;" xml:space="preserve">
<style type="text/css">
	.st0{fill:#EDEDED;}
	.st1{fill:#FFFFFF;}
	.st2{fill:#BABABA;}
</style>
<rect class="st0" width="250" height="150"/>
<g>
	<g>
		<path class="st1" d="M230.5,99h-211c-4.4,0-8-3.6-8-8V59c0-4.4,3.6-8,8-8h211c4.4,0,8,3.6,8,8v32C238.5,95.4,234.9,99,230.5,99z"
			/>
	</g>
</g>
<path class="st2" d="M99,68H24c-2.2,0-4-1.8-4-4l0,0c0-2.2,1.8-4,4-4h75c2.2,0,4,1.8,4,4l0,0C103,66.2,101.2,68,99,68z"/>
</svg>
