<?xml version="1.0" encoding="utf-8"?>
<!-- Generator: Adobe Illustrator 21.0.0, SVG Export Plug-In . SVG Version: 6.00 Build 0)  -->
<svg version="1.1" id="Layer_1" xmlns="http://www.w3.org/2000/svg" xmlns:xlink="http://www.w3.org/1999/xlink" x="0px" y="0px"
	 viewBox="0 0 250 150" style="enable-background:new 0 0 250 150;" xml:space="preserve">
<style type="text/css">
	.st0{fill:#EDEDED;}
	.st1{fill:#FFFFFF;}
	.st2{fill:#C6C6C6;}
	.st3{fill:#BABABA;}
	.st4{fill:none;stroke:#CECECE;stroke-linecap:round;stroke-miterlimit:10;}
</style>
<rect class="st0" width="250" height="150"/>
<path class="st1" d="M230.5,88.6h-211c-4.4,0-8-3.6-8-8V69.4c0-4.4,3.6-8,8-8h211c4.4,0,8,3.6,8,8v11.3
	C238.5,85,234.9,88.6,230.5,88.6z"/>
<path class="st2" d="M90.4,72.5H22.9c-1.3,0-2.3,1.1-2.3,2.5l0,0c0,1.4,1,2.5,2.3,2.5h67.5c1.3,0,2.3-1.1,2.3-2.5l0,0
	C92.7,73.6,91.7,72.5,90.4,72.5z"/>
<path class="st3" d="M226.1,77.4h-31.6c-1.4,0-2.5-1.1-2.5-2.5l0,0c0-1.4,1.1-2.5,2.5-2.5h31.6c1.4,0,2.5,1.1,2.5,2.5l0,0
	C228.6,76.3,227.5,77.4,226.1,77.4z"/>
<line class="st4" x1="125" y1="65.7" x2="125" y2="85.3"/>
<path class="st3" d="M186.8,77.5h-19.9c-1.4,0-2.5-1.1-2.5-2.5l0,0c0-1.4,1.1-2.5,2.5-2.5h19.9c1.4,0,2.5,1.1,2.5,2.5l0,0
	C189.3,76.4,188.1,77.5,186.8,77.5z"/>
</svg>
