<?xml version="1.0" encoding="utf-8"?>
<!-- Generator: Adobe Illustrator 21.0.0, SVG Export Plug-In . SVG Version: 6.00 Build 0)  -->
<svg version="1.1" id="Layer_1" xmlns="http://www.w3.org/2000/svg" xmlns:xlink="http://www.w3.org/1999/xlink" x="0px" y="0px"
	 viewBox="0 0 250 150" style="enable-background:new 0 0 250 150;" xml:space="preserve">
<style type="text/css">
	.st0{fill:#EDEDED;}
	.st1{fill:#FFFFFF;}
	.st2{fill:#BDDAE5;}
	.st3{fill:#E8C377;}
	.st4{clip-path:url(#SVGID_4_);fill:#3DB39E;}
	.st5{clip-path:url(#SVGID_4_);fill:#4BC2AD;}
	.st6{fill:#89858E;}
	.st7{fill:#E8DFCF;}
	.st8{fill:#90C1D1;}
	.st9{fill:#EDD983;}
	.st10{clip-path:url(#SVGID_5_);fill:#3DB39E;}
	.st11{clip-path:url(#SVGID_5_);fill:#4BC2AD;}
	.st12{clip-path:url(#SVGID_7_);}
	.st13{fill:#74BDCE;}
	.st14{clip-path:url(#SVGID_8_);fill:#549662;}
	.st15{clip-path:url(#SVGID_8_);fill:#43897C;}
	.st16{clip-path:url(#SVGID_7_);fill:#DCE1E2;}
	.st17{clip-path:url(#SVGID_7_);fill:#EDEDED;}
	.st18{clip-path:url(#SVGID_10_);fill:#4F5D73;}
</style>
<rect class="st0" width="250" height="150"/>
<path class="st1" d="M229.5,128.4h-209c-6.6,0-12-5.4-12-12V34c0-6.6,5.4-12,12-12h209c6.6,0,12,5.4,12,12v82.4
	C241.5,123,236.1,128.4,229.5,128.4z"/>
<g>
	<g>
		<path class="st2" d="M72.8,118.7h-48c-2.8,0-5-2.3-5-5V36.5c0-2.8,2.3-5,5-5h48c2.8,0,5,2.3,5,5v77.3
			C77.8,116.5,75.5,118.7,72.8,118.7z"/>
		<circle class="st3" cx="34.4" cy="46" r="9.4"/>
	</g>
	<g>
		<defs>
			<path id="SVGID_2_" d="M72.8,118.7h-48c-2.8,0-5-2.3-5-5V36.5c0-2.8,2.3-5,5-5h48c2.8,0,5,2.3,5,5v77.3
				C77.8,116.5,75.5,118.7,72.8,118.7z"/>
		</defs>
		<clipPath id="SVGID_4_">
			<use xlink:href="#SVGID_2_"  style="overflow:visible;"/>
		</clipPath>
		<path class="st4" d="M23.4,95.7c-2.7,0-5.3,0.2-7.8,0.5v16.7c0,2.5,2.1,4.6,4.7,4.6h35.4c0.2-0.9,0.3-1.8,0.3-2.7
			C56,104.2,41.4,95.7,23.4,95.7z"/>
		<path class="st5" d="M62.9,100.2c-23.2,0-42.1,9.5-42.3,21.3h67.6C88.2,121.5,85.5,100.2,62.9,100.2z"/>
	</g>
</g>
<path class="st6" d="M135.8,118.9h-48c-2.8,0-5-2.3-5-5V36.7c0-2.8,2.3-5,5-5h48c2.8,0,5,2.3,5,5v77.3
	C140.8,116.7,138.5,118.9,135.8,118.9z"/>
<path class="st7" d="M102.7,56.6C99,57.8,95,55.7,93.9,52s0.9-7.7,4.6-8.9c0.5-0.2,1.5-0.3,1.5-0.3s-2,4.6,0.2,7.2
	c2.2,2.5,6.9,2.7,6.9,2.7S104.8,56,102.7,56.6z"/>
<path class="st8" d="M198.8,118.7h-48c-2.8,0-5-2.3-5-5V36.5c0-2.8,2.3-5,5-5h48c2.8,0,5,2.3,5,5v77.3
	C203.8,116.5,201.5,118.7,198.8,118.7z"/>
<circle class="st9" cx="161.5" cy="46.5" r="7.6"/>
<g>
	<defs>
		<path id="SVGID_3_" d="M198.8,118.7h-48c-2.8,0-5-2.3-5-5V36.5c0-2.8,2.3-5,5-5h48c2.8,0,5,2.3,5,5v77.3
			C203.8,116.5,201.5,118.7,198.8,118.7z"/>
	</defs>
	<clipPath id="SVGID_5_">
		<use xlink:href="#SVGID_3_"  style="overflow:visible;"/>
	</clipPath>
	<polygon class="st10" points="195.4,76.1 154.8,120.1 216.1,120.1 	"/>
	<polygon class="st11" points="161.1,91.5 181.9,120.3 133.4,120.3 	"/>
</g>
<g>
	<defs>
		<rect id="SVGID_6_" x="208.8" y="31.7" width="21.5" height="91.2"/>
	</defs>
	<clipPath id="SVGID_7_">
		<use xlink:href="#SVGID_6_"  style="overflow:visible;"/>
	</clipPath>
	<g class="st12">
		<g>
			<path class="st13" d="M261.8,118.7h-48c-2.8,0-5-2.3-5-5V36.5c0-2.8,2.3-5,5-5h48c2.8,0,5,2.3,5,5v77.3
				C266.8,116.5,264.5,118.7,261.8,118.7z"/>
		</g>
		<g>
			<defs>
				<path id="SVGID_1_" d="M261.8,118.7h-48c-2.8,0-5-2.3-5-5V36.5c0-2.8,2.3-5,5-5h48c2.8,0,5,2.3,5,5v77.3
					C266.8,116.5,264.5,118.7,261.8,118.7z"/>
			</defs>
			<clipPath id="SVGID_8_">
				<use xlink:href="#SVGID_1_"  style="overflow:visible;"/>
			</clipPath>
			<path class="st14" d="M212.4,95.7c-2.7,0-5.3,0.2-7.8,0.5v16.7c0,2.5,2.1,4.6,4.7,4.6h35.4c0.2-0.9,0.3-1.8,0.3-2.7
				C245,104.2,230.4,95.7,212.4,95.7z"/>
			<path class="st15" d="M251.9,100.2c-23.2,0-42.1,9.5-42.3,21.3h67.6C277.2,121.5,274.5,100.2,251.9,100.2z"/>
		</g>
	</g>
	<ellipse class="st16" cx="229.8" cy="48" rx="9.1" ry="5.2"/>
	<path class="st17" d="M215,52.7"/>
	<path class="st17" d="M236.3,59.1l-6-0.2c-9.7-0.2-14.7-2.4-14.7-5.7v0c0-3.2,3.9-5.6,14.7-5.9h6c3.2,0,5.9,2.6,5.9,5.9v0
		C242.2,56.5,239.5,59.1,236.3,59.1z"/>
</g>
<g>
	<defs>
		<path id="SVGID_9_" d="M135.8,118.9h-48c-2.8,0-5-2.3-5-5V36.7c0-2.8,2.3-5,5-5h48c2.8,0,5,2.3,5,5v77.3
			C140.8,116.7,138.5,118.9,135.8,118.9z"/>
	</defs>
	<clipPath id="SVGID_10_">
		<use xlink:href="#SVGID_9_"  style="overflow:visible;"/>
	</clipPath>
	<path class="st18" d="M78.6,118.7c0,0,13.1-33.4,19.3-33.7c5.4-0.2,18.5,21.9,18.5,21.9s6.9-8.7,11.3-8.7
		c6.1,0,17.2,20.7,17.2,20.7L78.6,118.7z"/>
</g>
<circle class="st7" cx="105.9" cy="71.4" r="1.4"/>
<circle class="st7" cx="130.3" cy="54.1" r="1.4"/>
<circle class="st7" cx="118.8" cy="59.8" r="1"/>
<circle class="st7" cx="126.1" cy="77.5" r="1.7"/>
<circle class="st7" cx="87.8" cy="63.9" r="0.7"/>
<circle class="st7" cx="118.5" cy="37.9" r="1.4"/>
<circle class="st7" cx="134" cy="88.9" r="0.6"/>
</svg>
